<?xml version="1.0" encoding="utf-8"?>
<!-- Generator: Adobe Illustrator 21.0.0, SVG Export Plug-In . SVG Version: 6.00 Build 0)  -->
<svg version="1.1" id="Capa_1" xmlns="http://www.w3.org/2000/svg" xmlns:xlink="http://www.w3.org/1999/xlink" x="0px" y="0px"
	 viewBox="0 0 512 512" style="enable-background:new 0 0 512 512;" xml:space="preserve">
<style type="text/css">
	.st0{fill:#7D7574;}
	.st1{fill:none;}
	.st2{fill:#6B1412;}
	.st3{font-family:'Impact';}
	.st4{font-size:60px;}
</style>
<g>
	<g>
		<path class="st0" d="M173.7,262.6c0.3-5.5,0.7-11,1.4-16.5c1.3-13.1,4.2-26.3,7.1-39.1c1.8-6.4,3.7-12.7,5.7-18.9
			c2.6-6,5.1-12,7.6-17.9c5.7-11.4,12.1-22.1,19.7-31.1c1.8-2.3,3.6-4.5,5.3-6.8c2-2,4-3.9,5.9-5.9c4.1-3.7,7.6-7.7,11.7-10.6
			c8.1-6,15.3-11.7,22.6-15.2c7-3.9,13.1-7.3,18.5-9.2c10.7-4.3,16.7-6.4,16.7-6.4s-5.2,4.1-14.2,10.7c-4.7,3-9.6,7.8-15.5,12.8
			c-6.1,4.7-11.7,11.4-18.3,17.8c-3.3,3.3-5.9,7.4-9,11.2c-1.5,1.9-3.1,3.9-4.7,5.9c-1.3,2.2-2.6,4.4-4,6.6
			c-5.8,8.6-10.2,18.8-14.7,29c-1.9,5.4-3.7,10.8-5.7,16.3c-1.3,5.7-2.8,11.5-4.4,17.3c-2.4,11.9-4.7,23.9-5.7,36.4
			c-0.7,4.5-1,9.1-1.5,13.6c98.8,0,175.2,0.1,282.1,0.1c0.4-4.7,0.6-9.4,0.6-14.2c0-90.1-65.6-164.3-150.1-174.1
			C336.5,69.3,340,62,340,54c0-15.5-12.5-28-27.9-28c-15.5,0-28,12.5-28,28c0,8.1,3.4,15.3,8.9,20.4c-84.5,9.8-150.1,84-150.1,174.1
			c0,4.8,0.2,9.4,0.5,14.1C153.8,262.6,163.9,262.6,173.7,262.6z"/>
		<rect x="112.1" y="273" class="st0" width="399.9" height="35.3"/>
		<path class="st0" d="M347.8,333.3c-20.3,9.9-91.2,35.4-91.2,35.4l-83.8-5.2c0,0,47.9-13.3,66.5-17.5c18.6-4.2,10.5-25.1,0.2-25.1
			c-10.3,0-100,3.7-100,3.7L80.1,346l15.8,99.7c0,0,12.3-21,24.5-21c12.3,0,118.6,2.8,133,0c14.4-2.9,102.4-63,112.9-70
			C376.7,347.7,368.2,323.4,347.8,333.3z"/>
		<polygon class="st0" points="0,356.7 0,486 91.2,468.9 68.4,344.7 		"/>
	</g>
</g>
<rect y="13" class="st1" width="232" height="58"/>
<text transform="matrix(1 0 0 1 0 60.459)" class="st2 st3 st4">CATERING</text>
</svg>
